<?xml version="1.0" encoding="utf-8"?>
<!-- Generator: Adobe Illustrator 25.4.1, SVG Export Plug-In . SVG Version: 6.00 Build 0)  -->
<svg version="1.1" id="图层_1" xmlns="http://www.w3.org/2000/svg" xmlns:xlink="http://www.w3.org/1999/xlink" x="0px" y="0px"
	 viewBox="0 0 12 52" style="enable-background:new 0 0 12 52;" xml:space="preserve">
<style type="text/css">
	.st0{fill:#09B0A6;}
</style>
<path class="st0" d="M12.04,1.69L12.04,1.69l0.01-2h-0.79v0h-1.07c0.15,0.58,0.24,1.18,0.24,1.81c0,0.76-0.12,1.5-0.34,2.19V3.68
	H5.1H4.62H4.2c-0.29,1.25-1.38,2.19-2.7,2.19c-0.31,0-0.61-0.06-0.89-0.15v0.93v37.95v0.03v0.9c0.28-0.1,0.58-0.15,0.89-0.15
	c1.32,0,2.42,0.94,2.7,2.19h0.42H5.1h4.94c0.25,0.73,0.39,1.5,0.39,2.32c0,0.63-0.09,1.23-0.24,1.81h1.07v0h0.79v-2h-0.01
	c-0.09-4.28-3.19-7.8-7.23-8.46V10.15C8.85,9.5,11.95,5.98,12.04,1.69z M3.44,42.77c2.78,0,5.17,1.66,6.3,4.06H4.88
	c-0.54-1.38-1.85-2.35-3.39-2.35c-0.06,0-0.11,0.01-0.16,0.01V6.77c0.05,0,0.11,0.01,0.16,0.01c1.54,0,2.85-0.98,3.39-2.35H9.8
	C8.72,6.86,6.34,8.56,3.56,8.61H3.32v1.66v30.86v1.52v0.13C3.36,42.78,3.4,42.77,3.44,42.77z"/>
</svg>
